<?xml version="1.0" standalone="no"?>
<!DOCTYPE svg PUBLIC "-//W3C//DTD SVG 20010904//EN"
 "http://www.w3.org/TR/2001/REC-SVG-20010904/DTD/svg10.dtd">
<svg version="1.0" xmlns="http://www.w3.org/2000/svg"
 width="300.000000pt" height="300.000000pt" viewBox="0 0 300.000000 300.000000"
 preserveAspectRatio="xMidYMid meet">
<metadata>
Created by potrace 1.10, written by Peter Selinger 2001-2011
</metadata>
<g transform="translate(0.000000,300.000000) scale(0.050000,-0.050000)"
fill="#000000" stroke="none">
<path d="M2497 5097 c-35 -7 -75 -9 -89 -3 -14 5 -38 2 -52 -7 -14 -9 -75 -28
-136 -41 -290 -62 -337 -77 -430 -133 -55 -33 -128 -83 -162 -112 -34 -28 -79
-62 -100 -76 -33 -22 -32 -23 9 -3 33 15 44 15 35 1 -8 -12 -45 -37 -84 -55
-38 -18 -65 -38 -59 -43 5 -6 26 2 46 17 31 24 31 23 -2 -16 -22 -26 -50 -39
-70 -31 -18 6 -27 4 -19 -4 7 -8 -9 -38 -37 -66 -33 -32 -43 -55 -29 -64 12
-7 -29 -10 -93 -6 -366 25 -593 -393 -425 -784 82 -192 163 -261 175 -149 3
26 7 59 9 73 1 13 20 30 41 37 21 6 33 24 28 38 -6 15 15 53 46 86 84 88 127
160 114 193 -6 15 -1 32 11 36 23 7 95 222 96 286 0 23 10 51 22 63 16 16 7
31 -35 55 -57 32 -57 32 -7 28 28 -1 66 4 85 12 25 11 47 1 74 -32 25 -30 40
-37 40 -19 1 15 -15 39 -34 53 -44 33 -26 51 53 53 66 2 76 14 41 49 -16 16 5
30 70 49 50 15 91 33 91 40 0 7 27 24 59 38 59 24 70 56 31 85 -12 9 -10 15 6
15 15 0 21 8 15 18 -15 25 128 39 199 19 l60 -17 -60 50 -60 51 80 -12 c44 -7
109 -21 144 -32 36 -11 94 -20 130 -21 36 -1 87 -18 113 -39 26 -20 55 -32 64
-27 68 43 301 -379 294 -534 -2 -61 7 -101 29 -123 38 -38 56 -10 56 89 0 32
9 58 20 58 11 0 20 26 20 58 0 125 126 338 280 473 50 43 73 58 52 34 -45 -53
-30 -58 39 -13 27 18 100 35 164 38 63 3 129 10 145 16 17 6 57 16 90 23 l60
11 -54 -45 -54 -45 131 7 c91 5 127 0 118 -15 -7 -13 1 -22 19 -22 18 0 27 -8
21 -18 -6 -9 10 -23 34 -30 38 -10 40 -15 15 -34 -23 -16 -18 -19 24 -10 29 7
59 3 66 -8 7 -11 -6 -20 -29 -20 -22 0 -41 -9 -41 -20 0 -11 12 -20 27 -20 15
0 57 -15 95 -34 68 -34 68 -34 18 -47 -42 -11 -35 -15 45 -28 102 -17 118 -37
55 -71 -22 -12 -40 -41 -39 -66 0 -41 4 -39 55 21 40 48 62 60 84 46 16 -11
52 -15 80 -9 50 10 50 10 -5 -22 -30 -17 -55 -41 -55 -52 0 -11 9 -15 20 -8
11 7 21 -12 22 -44 2 -31 5 -65 7 -76 3 -11 6 -28 8 -39 2 -10 17 -1 34 20 30
37 30 37 8 -9 -25 -51 5 -202 40 -202 9 0 13 -16 8 -35 -9 -35 24 -89 110
-181 42 -44 56 -74 61 -129 1 -8 14 -15 29 -15 14 0 28 -11 29 -25 2 -14 7
-47 11 -75 4 -27 9 -58 10 -68 6 -38 90 63 149 178 200 387 1 813 -382 822
-80 2 -152 9 -159 17 -8 7 2 7 21 0 19 -7 34 -5 34 5 0 26 -87 106 -115 106
-13 0 -28 9 -35 20 -7 11 3 15 24 8 27 -9 25 -1 -11 30 -26 23 -59 42 -73 42
-14 0 -36 14 -50 30 -22 26 -20 29 12 19 21 -6 13 3 -17 20 -30 18 -55 41 -55
52 0 10 -13 19 -28 19 -15 0 -33 14 -39 30 -7 17 -26 30 -42 30 -17 0 -31 7
-31 16 0 23 -125 73 -286 115 -93 24 -128 41 -110 53 16 12 -8 15 -64 9 -49
-5 -106 -1 -125 9 -40 22 -783 34 -878 15z m112 -164 c45 -43 102 -91 127
-108 l46 -31 -42 72 c-24 39 -71 90 -106 113 -61 39 -62 41 -14 36 28 -3 57
-14 65 -25 8 -12 15 -8 16 10 1 17 23 -15 50 -70 27 -55 46 -80 41 -55 -5 25
-1 45 7 45 17 0 47 -220 32 -235 -5 -6 -20 14 -34 43 -13 30 -35 49 -48 44
-13 -5 -44 19 -69 52 -32 44 -49 54 -60 35 -16 -25 -200 105 -200 141 0 44
116 3 189 -67z m466 69 c52 20 53 20 16 -20 -20 -23 -45 -36 -55 -30 -10 6
-46 -52 -81 -130 -86 -195 -123 -189 -72 11 12 50 29 80 36 68 9 -13 29 6 52
49 21 39 42 62 45 52 4 -13 25 -13 59 0z m213 -5 c-15 -25 -166 -164 -186
-172 -25 -10 -12 88 16 122 15 18 55 41 90 51 86 25 96 25 80 -1z m-915 -51
c32 -21 42 -39 30 -51 -13 -13 -41 -5 -80 23 -32 23 -69 42 -81 42 -12 0 -22
10 -22 22 0 28 86 8 153 -36z m1126 35 c0 -6 -40 -31 -90 -56 -96 -49 -117
-22 -31 39 45 31 123 42 121 17z m-475 -161 c-37 -65 -70 -82 -50 -25 16 47
47 85 68 85 9 0 1 -27 -18 -60z m-355 -124 c34 -49 40 -76 15 -76 -8 0 -31 27
-51 60 -41 69 -11 82 36 16z m402 -15 c-32 -61 -71 -97 -71 -65 0 20 77 124
92 124 5 0 -5 -26 -21 -59z m-92 -24 c-10 -34 -13 -70 -7 -80 6 -9 1 -17 -11
-17 -29 0 -27 106 3 136 34 34 35 31 15 -39z m-219 -40 c9 -37 26 -96 37 -132
12 -39 13 -61 2 -54 -11 6 -19 28 -19 48 0 20 -12 46 -27 58 -14 13 -28 55
-29 96 -3 85 13 78 36 -16z"/>
<path d="M3287 4485 c-68 -63 -129 -135 -136 -160 -8 -25 -22 -40 -32 -34 -11
6 -20 -27 -22 -75 l-2 -86 -15 70 c-14 66 -15 66 -20 15 -3 -30 -7 -66 -8 -80
-17 -120 94 -277 288 -407 72 -48 169 -115 217 -150 75 -54 84 -57 64 -19 -22
41 -21 42 16 23 22 -12 73 -22 113 -22 95 0 84 43 -17 69 -94 23 -92 39 7 69
48 14 101 50 135 93 30 38 63 69 74 69 10 0 -7 -27 -39 -60 -77 -81 -27 -79
101 4 54 35 104 63 110 61 6 -1 51 34 100 78 49 44 80 76 69 70 -11 -5 -32 4
-46 19 -14 15 -18 28 -10 29 9 0 0 9 -19 21 -19 11 -35 32 -35 47 0 14 -14 37
-30 51 -17 14 -27 30 -21 35 11 11 -85 144 -129 179 -120 94 -273 146 -444
150 -139 4 -170 10 -152 30 46 56 0 21 -117 -89z m433 -158 c284 -168 131
-459 -239 -452 -242 4 -312 78 -240 254 96 230 289 310 479 198z"/>
<path d="M3393 4280 c-71 -62 -165 -259 -147 -307 21 -54 398 -72 468 -23 104
73 127 133 86 226 -75 166 -277 218 -407 104z m227 -111 c0 -40 -38 -55 -71
-28 -22 18 -24 31 -8 50 26 31 79 16 79 -22z m160 -82 c0 -23 -15 -54 -34 -70
-29 -24 -32 -23 -20 10 8 20 14 65 14 100 1 48 5 56 20 33 11 -16 20 -49 20
-73z m-88 0 c15 -80 -36 -147 -113 -147 -29 0 -25 11 25 61 46 46 57 71 48
110 -7 27 -4 49 7 49 10 0 25 -33 33 -73z"/>
<path d="M1985 4544 c-47 -4 -85 -15 -85 -25 0 -11 -9 -19 -21 -19 -45 0 -241
-143 -258 -188 -10 -27 -28 -54 -40 -61 -12 -8 -17 -21 -12 -30 6 -9 -3 -28
-19 -41 -17 -14 -30 -34 -30 -44 0 -11 -19 -46 -42 -79 -36 -50 -38 -63 -15
-92 39 -50 104 -104 126 -104 10 -1 39 -20 63 -43 25 -23 119 -67 209 -97 169
-57 176 -66 64 -90 -91 -20 -86 -71 6 -71 40 0 91 10 115 23 40 21 41 20 17
-10 -47 -56 -2 -37 105 45 56 42 129 91 162 108 171 88 292 269 287 431 -2 92
-2 92 -17 23 l-15 -70 -2 65 c-5 108 -243 425 -243 322 0 -13 -18 -7 -42 14
-41 38 -123 47 -313 33z m276 -209 c94 -47 199 -210 199 -307 0 -63 -31 -76
-36 -16 -18 227 -246 390 -419 301 -298 -154 -126 -449 226 -390 138 23 195
17 161 -18 -25 -24 -277 -38 -366 -20 -98 21 -226 147 -226 222 0 37 103 212
125 213 3 0 41 14 85 29 110 40 148 38 251 -14z m-125 -170 c-4 -19 -20 -35
-36 -35 -16 0 -32 16 -36 35 -5 25 6 35 36 35 30 0 41 -10 36 -35z m-191 -90
c4 -41 0 -75 -8 -75 -25 0 -41 81 -26 136 16 61 23 48 34 -61z m86 28 c-11
-48 -2 -67 50 -110 62 -53 17 -84 -53 -38 -52 35 -99 207 -48 175 11 -7 20 -3
20 9 0 11 10 21 22 21 13 0 16 -22 9 -57z m300 -94 c-32 -49 -71 -66 -71 -31
0 30 89 122 97 100 4 -10 -8 -41 -26 -69z"/>
<path d="M4360 3850 c-21 -25 -18 -30 13 -30 60 1 98 32 57 47 -44 17 -41 18
-70 -17z"/>
<path d="M2700 3805 c-16 -6 -47 -34 -70 -62 -152 -189 -118 -362 81 -412 84
-22 99 -33 99 -73 0 -122 -364 -141 -508 -27 -102 80 -137 85 -211 26 -75 -59
-28 -117 64 -79 51 21 73 17 186 -37 76 -36 162 -61 209 -61 44 -1 136 -13
205 -27 69 -14 130 -21 136 -15 6 6 31 12 55 14 136 11 302 51 391 97 112 56
163 63 199 27 37 -37 100 30 66 71 -53 64 -123 59 -234 -18 -169 -116 -477
-107 -510 15 -16 63 -7 76 56 76 224 0 298 242 128 420 -76 80 -229 109 -342
65z m295 -120 c6 -19 -35 -25 -166 -25 -154 0 -171 3 -148 31 32 39 301 34
314 -6z m105 -174 c0 -4 -14 -22 -31 -40 -35 -34 -149 -43 -149 -11 0 11 25
20 55 20 30 0 69 9 85 20 34 22 40 24 40 11z m-384 -31 c37 0 46 -6 30 -22
-29 -29 -131 -15 -142 20 -7 20 1 24 25 15 19 -7 58 -13 87 -13z"/>
<path d="M3960 3528 c-54 -15 -72 -25 -44 -26 103 -4 13 -42 -102 -44 -121 -1
-123 -2 -64 -29 66 -30 178 -40 133 -12 -30 20 79 42 202 43 42 0 75 10 75 22
0 15 -24 18 -70 9 -66 -12 -101 15 -45 35 62 22 -4 23 -85 2z"/>
<path d="M2350 3480 c-18 -29 10 -64 41 -52 14 5 30 -1 35 -14 7 -18 16 -18
36 2 23 21 20 27 -17 37 -25 6 -45 20 -45 29 0 24 -35 23 -50 -2z"/>
<path d="M1732 3442 c-6 -8 19 -11 54 -7 49 6 57 3 34 -13 -45 -32 33 -27 110
6 58 25 56 26 -65 28 -68 1 -128 -5 -133 -14z"/>
<path d="M4610 3380 c7 -11 -7 -18 -34 -15 -66 7 -53 -76 25 -156 l60 -62 -70
2 c-78 3 -82 0 -46 -37 28 -28 82 -20 64 9 -6 10 3 13 21 6 64 -24 -45 -69
-179 -73 -113 -3 -124 -7 -85 -28 55 -31 114 -33 114 -5 0 12 11 15 25 6 14
-9 43 -14 65 -11 38 5 38 3 5 -23 -35 -28 -48 -73 -20 -73 9 0 27 -19 42 -42
14 -23 17 -37 7 -30 -11 6 -18 -4 -17 -23 3 -35 -13 -38 -127 -25 -134 16
-232 0 -191 -31 38 -29 38 -29 0 -30 -38 -2 -38 -2 1 -21 30 -14 20 -16 -40
-9 -64 7 -73 5 -42 -12 52 -31 248 -7 294 35 36 32 38 32 38 -4 1 -32 4 -34
22 -8 23 32 18 -5 -12 -90 -9 -26 9 -15 49 30 l62 70 -65 -107 c-66 -109 -225
-263 -272 -263 -14 0 -47 -22 -72 -49 -47 -51 -194 -99 -375 -123 -53 -7 -97
-21 -97 -31 0 -9 -29 -18 -65 -20 -55 -2 -57 -4 -15 -11 90 -17 83 -39 -10
-33 -54 3 -116 23 -152 48 -68 49 -98 43 -41 -9 68 -61 264 -106 293 -66 13
18 29 28 35 22 6 -6 28 -2 48 9 20 11 73 29 117 40 194 47 320 86 344 106 14
12 44 17 66 11 24 -6 40 0 40 15 0 25 108 131 134 131 7 0 39 24 70 54 31 29
56 43 56 29 0 -58 -61 -161 -128 -216 -58 -48 -65 -60 -33 -57 22 1 65 24 94
51 48 44 52 45 39 9 -12 -32 -9 -35 11 -15 40 40 60 29 24 -14 -55 -64 -94
-168 -57 -154 49 19 34 -21 -25 -67 l-54 -43 57 14 c89 23 47 -22 -58 -62 -91
-35 -126 -75 -47 -54 27 7 39 4 30 -10 -7 -11 2 -26 20 -33 18 -7 27 -19 20
-25 -6 -7 -26 -1 -43 13 -25 21 -37 20 -65 -5 -19 -16 -68 -41 -108 -53 -41
-13 -85 -37 -98 -53 -13 -16 -36 -29 -50 -29 -15 0 -31 -7 -36 -15 -14 -23
228 -13 290 12 42 16 59 14 77 -7 19 -23 13 -31 -33 -41 -132 -30 -274 -93
-333 -149 -35 -33 -77 -61 -94 -61 -19 -2 -21 -6 -6 -12 13 -5 42 0 65 12 27
15 41 16 41 2 0 -12 10 -21 21 -21 12 0 35 -13 52 -30 16 -16 24 -30 17 -30
-7 0 29 -32 79 -71 51 -38 101 -65 112 -59 10 7 52 -14 94 -47 87 -68 209
-102 156 -44 -37 41 -41 69 -6 48 13 -8 42 -16 63 -18 21 -1 49 -18 63 -37 15
-21 28 -25 32 -12 6 16 23 17 65 1 48 -18 55 -17 45 9 -15 39 15 39 47 0 14
-16 19 -30 12 -30 -7 0 1 -33 18 -72 16 -40 30 -80 30 -88 0 -29 -100 -34
-152 -7 -70 36 -99 34 -67 -5 29 -34 -106 -22 -153 14 -58 47 -246 116 -235
87 15 -39 180 -136 206 -120 10 7 34 -10 52 -38 18 -28 40 -47 48 -41 8 5 26
-15 39 -44 26 -57 -16 -37 -71 34 -13 16 -30 24 -38 16 -8 -8 -32 -5 -53 6
-78 42 -48 -49 49 -147 54 -54 68 -41 15 15 -59 63 -36 92 26 33 40 -37 65
-42 165 -35 88 6 128 0 154 -23 32 -28 35 -28 37 7 0 21 6 27 11 13 6 -14 23
-25 39 -25 22 0 27 -23 22 -95 -5 -82 -12 -96 -39 -82 -20 10 -111 6 -104 -5
18 -28 -70 -32 -110 -5 -36 26 -41 26 -41 -3 0 -25 -14 -21 -69 21 -67 51 -69
51 -61 9 7 -38 4 -40 -24 -17 -96 80 -147 137 -123 138 15 0 0 15 -33 32 -33
17 -94 64 -135 103 -41 40 -75 62 -75 49 0 -35 117 -161 162 -176 30 -9 36
-23 26 -56 -7 -23 -7 -37 1 -30 7 7 60 -34 118 -90 94 -93 298 -258 238 -192
-46 50 -25 66 25 19 28 -26 50 -39 51 -28 0 10 12 2 27 -18 28 -36 71 -39 95
-6 7 9 19 -4 27 -30 27 -91 70 -143 99 -119 20 16 29 14 38 -10 7 -18 4 -26
-7 -19 -11 7 -20 -2 -20 -19 0 -17 14 -31 31 -31 35 0 31 205 -6 300 -11 28
-25 77 -32 110 l-13 60 29 -50 c37 -63 40 -36 4 36 -15 30 -38 99 -51 154 -13
55 -29 117 -35 137 -9 31 -5 33 30 14 34 -18 27 5 -40 130 -48 89 -83 181 -85
225 -1 41 -14 93 -27 117 -25 45 13 58 49 18 9 -10 5 -11 -9 -3 -41 24 -28
-14 27 -78 l52 -60 -34 57 c-18 31 -28 61 -23 67 6 6 -18 66 -53 133 -35 68
-67 131 -71 140 -4 10 13 11 38 3 45 -15 -40 117 -150 231 -49 51 -104 195
-62 160 19 -16 47 -54 64 -86 53 -104 53 -41 -1 76 -28 62 -47 120 -42 129 5
9 -5 50 -22 93 l-32 77 55 -50 55 -50 -57 100 c-38 66 -46 91 -23 72 27 -21
23 -4 -16 70 -75 145 -86 279 -30 373 40 69 41 74 7 61 -30 -11 -33 -8 -16 15
38 52 76 187 55 194 -11 3 -16 28 -11 54 5 27 19 44 32 39 13 -5 24 13 26 40
3 63 -115 180 -183 181 -28 1 -48 10 -45 21 3 11 17 19 31 17 18 -2 16 9 -8
35 -37 41 -58 51 -38 18z m132 -305 c-1 -8 -2 -28 -2 -45 0 -44 -26 -37 -58
15 -27 43 -26 43 9 15 33 -27 35 -27 23 7 -9 22 -6 34 7 29 12 -4 21 -14 21
-21z m-32 -1335 c32 -33 47 -60 34 -60 -12 0 -32 18 -44 40 -12 22 -34 40 -50
40 -15 0 -33 9 -40 20 -28 46 47 16 100 -40z m83 -48 c-5 -12 38 -69 94 -127
56 -58 91 -105 78 -105 -13 0 -19 -13 -12 -30 7 -19 0 -30 -20 -30 -21 0 -28
-11 -19 -33 9 -24 5 -29 -13 -18 -15 10 -32 5 -42 -10 -13 -22 -22 -22 -47 0
-20 16 -32 18 -32 5 0 -12 9 -27 20 -34 48 -30 14 -48 -39 -21 -77 40 -94 39
-57 -4 58 -67 55 -77 -20 -80 -101 -3 -251 49 -304 105 l-43 46 61 14 c78 17
37 99 -61 121 -76 16 -66 26 93 81 117 41 135 43 185 17 46 -24 48 -29 15 -29
-43 -1 3 -39 57 -48 13 -2 33 -10 46 -18 15 -9 21 -2 17 21 -4 19 -8 40 -8 47
-1 6 -24 22 -52 34 -27 13 -50 33 -50 44 0 15 12 15 37 1 43 -23 125 43 84 68
-11 7 -21 23 -21 35 0 13 12 11 31 -5 17 -14 27 -35 22 -47z"/>
<path d="M4471 1541 c-78 -33 -79 -34 -30 -51 101 -34 136 -28 131 23 -7 65
-12 66 -101 28z"/>
<path d="M1105 3320 c-14 -22 -47 -40 -73 -40 -60 0 -152 -104 -152 -173 0
-27 8 -44 18 -38 19 12 42 -33 42 -82 0 -17 -10 -23 -23 -15 -25 16 -5 -93 21
-112 7 -5 13 -32 13 -60 -1 -27 11 -76 26 -108 40 -85 14 -276 -53 -391 -42
-73 -45 -85 -14 -61 34 27 33 22 -6 -42 -51 -84 -58 -123 -13 -67 35 43 34 10
-2 -79 -11 -27 -9 -34 8 -24 32 20 29 2 -15 -84 -48 -96 -102 -224 -93 -224 4
0 36 45 71 101 36 55 69 97 74 92 22 -22 -65 -171 -167 -287 -127 -145 -133
-194 -8 -65 89 92 88 52 -2 -61 -81 -102 -125 -217 -96 -251 12 -15 18 -35 12
-44 -6 -10 -15 -54 -20 -99 -6 -45 -38 -136 -72 -203 -67 -133 -72 -152 -39
-132 16 10 18 -12 9 -73 -7 -49 -6 -79 3 -68 53 65 92 80 78 30 -14 -48 -13
-48 17 -11 17 21 47 42 66 45 105 21 127 20 117 -5 -15 -40 90 -14 143 36 52
48 86 32 41 -20 -61 -71 -68 -98 -15 -60 27 19 122 84 211 144 90 60 185 135
212 167 63 75 128 110 165 90 22 -13 -16 -55 -150 -172 -111 -97 -188 -151
-204 -142 -14 8 -18 7 -10 -2 21 -23 -23 -70 -66 -70 -20 0 -43 -10 -50 -22
-9 -14 8 -18 49 -11 61 9 183 106 399 312 51 49 98 88 105 86 7 -2 23 20 36
49 24 51 23 52 -25 20 -63 -42 -66 16 -3 70 27 23 31 35 13 35 -15 1 -54 -21
-87 -49 -32 -27 -52 -50 -43 -50 10 0 -35 -35 -98 -77 -63 -42 -109 -82 -102
-90 8 -7 0 -13 -16 -13 -16 0 -56 -26 -88 -57 -33 -31 -86 -74 -119 -95 l-60
-38 37 58 c37 57 37 58 0 43 -20 -9 -50 -16 -67 -16 -16 0 -55 -23 -85 -51
-82 -76 -67 -34 18 51 41 40 88 74 106 75 18 2 72 26 121 55 142 85 49 90
-112 6 -162 -84 -238 -94 -217 -27 14 43 13 43 -37 10 -47 -30 -166 -40 -175
-14 -10 29 53 184 87 215 39 34 39 34 17 -9 -34 -64 -29 -71 29 -33 44 29 54
30 70 5 16 -23 22 -22 39 7 26 44 68 46 51 3 -20 -52 146 -13 227 55 75 61
122 77 81 27 -14 -16 -18 -30 -10 -30 8 0 31 21 52 48 20 26 76 67 123 90 47
23 73 42 59 42 -21 0 -20 7 3 30 17 16 40 30 52 30 11 0 21 9 21 19 0 11 16
14 35 7 31 -11 31 -8 -3 31 -54 61 -214 61 -271 -1 -55 -59 -52 -75 19 -89 33
-7 60 -18 60 -25 0 -41 -265 -143 -355 -137 -75 6 -77 9 -32 59 45 49 21 68
-36 28 -63 -44 -83 -40 -55 11 19 36 18 41 -9 31 -17 -7 -37 -4 -43 6 -6 10
-25 13 -41 7 -22 -8 -26 -2 -16 24 11 28 6 33 -20 23 -36 -14 -46 16 -12 37
11 7 16 27 11 46 -19 60 95 162 168 150 34 -5 75 0 89 13 19 15 31 15 40 1 7
-11 -8 -30 -33 -42 -25 -11 -56 -43 -69 -70 -36 -77 32 -64 107 20 58 65 65
68 129 48 160 -51 248 -71 265 -61 11 6 -48 30 -130 54 -146 44 -184 85 -68
75 33 -3 114 -10 180 -16 l120 -10 -70 48 c-38 26 -104 60 -147 75 -95 34
-232 151 -155 132 71 -17 23 18 -61 45 -41 12 -78 36 -84 51 -12 29 28 22 87
-16 17 -10 5 4 -25 33 -62 58 -68 73 -25 73 29 0 -13 98 -77 179 -17 22 -17
25 0 15 13 -8 28 -3 34 11 7 17 24 10 53 -24 23 -27 60 -50 81 -51 51 -4 50
24 -2 40 -45 15 -128 132 -148 210 -13 50 -13 50 24 10 61 -67 134 -123 115
-90 -9 17 19 -2 62 -42 83 -76 362 -178 607 -221 66 -12 116 -29 110 -39 -31
-49 173 -20 261 37 94 61 64 85 -33 26 -71 -43 -128 -54 -107 -21 7 12 -17 20
-60 20 -43 0 -67 8 -60 20 7 12 -15 21 -54 21 -109 2 -407 86 -401 114 3 13
-40 47 -94 75 -105 53 -214 158 -305 296 -81 122 -69 139 16 23 49 -68 67 -83
57 -49 -8 28 -22 60 -33 73 -29 37 60 56 100 21 80 -68 190 -50 197 33 3 31
-9 36 -74 30 -56 -6 -71 -2 -57 15 14 17 -3 16 -56 -2 -42 -15 -85 -21 -96
-14 -11 7 -35 11 -53 8 -19 -3 -40 4 -47 16 -8 13 -2 20 13 17 15 -3 54 11 87
30 57 34 47 34 -40 2 -27 -10 -22 0 17 31 l58 46 -53 28 c-70 37 -66 65 8 53
38 -6 60 -1 60 14 0 15 -20 20 -50 14 -28 -5 -56 -2 -62 8 -6 9 -1 17 10 17
11 0 45 24 76 54 l56 53 -100 -57 c-61 -35 -89 -44 -73 -24 16 19 21 34 13 34
-8 0 -3 15 13 34 18 23 19 29 2 19 -16 -10 -25 -4 -25 15 0 18 12 26 27 20 31
-12 79 39 87 94 8 52 -57 50 -89 -2z m-134 -1614 c-11 -30 -9 -31 24 -5 20 16
15 8 -12 -17 -55 -53 -110 -31 -64 25 35 41 69 39 52 -3z"/>
<path d="M4186 3069 c31 -27 71 -49 89 -49 21 0 8 18 -35 50 -87 64 -127 64
-54 -1z"/>
<path d="M4250 2986 c-137 -12 -182 -26 -149 -47 42 -26 165 -24 148 3 -8 13
2 20 24 17 87 -9 138 1 107 21 -16 11 -34 18 -40 16 -5 -1 -46 -6 -90 -10z"/>
<path d="M1359 2962 c16 -11 36 -15 45 -9 9 5 21 -3 27 -19 9 -23 28 -25 94
-11 45 10 93 14 108 9 14 -6 31 -2 38 9 6 10 4 20 -5 20 -219 17 -332 17 -307
1z"/>
<path d="M1920 2940 c0 -11 1 -25 1 -32 4 -29 -132 -103 -155 -85 -15 13 -38
12 -65 -2 -59 -32 -51 -46 19 -31 35 8 60 5 60 -7 0 -54 138 39 147 100 2 15
11 38 20 52 9 14 6 25 -6 25 -11 0 -21 -9 -21 -20z"/>
<path d="M1587 2880 c-67 -27 -71 -53 -7 -48 69 5 105 24 89 49 -13 22 -25 22
-82 -1z"/>
<path d="M4040 2885 c0 -27 49 -45 120 -45 56 0 103 31 54 35 -13 1 -58 8 -99
16 -47 9 -75 7 -75 -6z"/>
<path d="M2022 2827 c-27 -60 -28 -88 -2 -47 15 24 19 24 20 3 0 -23 6 -23 30
-3 37 31 39 72 2 86 -16 7 -36 -9 -50 -39z"/>
<path d="M3812 2851 c17 -44 114 -102 124 -74 5 16 33 20 81 13 72 -12 73 -12
23 18 -27 17 -66 26 -85 20 -19 -6 -55 4 -79 21 -56 39 -78 40 -64 2z"/>
<path d="M2598 2850 c-21 -80 -42 -105 -90 -105 -38 0 -44 6 -27 27 31 36 4
77 -31 48 -16 -14 -31 -15 -38 -3 -14 23 -96 5 -117 -25 -9 -14 -15 -9 -15 12
0 30 -8 29 -66 -10 -48 -31 -64 -56 -59 -85 5 -26 -19 -77 -62 -134 l-70 -91
63 33 c78 41 106 72 149 168 41 89 65 96 66 20 0 -50 3 -52 27 -19 24 30 29
31 39 4 7 -17 23 -28 37 -25 14 3 24 -8 21 -25 -4 -21 4 -18 25 9 30 38 30 38
59 0 18 -24 30 -29 30 -13 1 33 64 23 95 -16 19 -23 25 -24 25 -3 1 14 12 23
26 18 14 -5 37 6 51 23 15 18 22 23 17 11 -6 -11 -2 -34 8 -50 17 -27 23 -15
18 35 -3 22 66 41 106 30 26 -6 33 -21 25 -51 -11 -38 -9 -39 10 -8 23 37 80
48 80 16 0 -11 13 -15 28 -9 15 6 34 0 42 -13 11 -17 19 -16 32 4 14 21 17 22
18 1 0 -15 9 -21 20 -14 12 7 15 21 9 31 -6 11 -2 19 10 19 11 0 21 -9 21 -20
0 -11 13 -20 28 -20 30 0 78 -102 80 -170 1 -22 11 -40 22 -40 11 0 32 -8 46
-17 15 -9 32 -12 38 -6 6 6 -12 22 -41 35 -28 13 -47 31 -42 39 5 9 -9 57 -31
109 -42 98 -54 166 -18 105 11 -20 29 -31 40 -24 10 6 13 20 7 30 -16 27 12
23 74 -9 52 -27 53 -27 46 40 -8 86 -22 108 -71 108 -22 0 -35 -9 -28 -20 17
-27 -2 -25 -49 4 -22 14 -46 17 -55 8 -9 -10 -5 -21 9 -26 14 -5 25 -18 25
-28 0 -28 -72 -21 -98 10 -33 40 -122 36 -107 -5 11 -28 9 -28 -20 -2 -40 35
11 89 64 68 22 -8 25 -5 10 10 -14 14 -58 14 -144 -1 -88 -16 -151 -16 -225 0
-114 25 -139 27 -142 12z m85 -41 c62 -28 63 -30 12 -23 -40 6 -57 -2 -66 -30
-7 -22 -17 -35 -22 -29 -6 5 -1 28 11 50 16 30 15 42 -3 50 -14 5 -19 11 -12
11 7 1 43 -12 80 -29z"/>
<path d="M3440 2823 c0 -76 148 -322 176 -294 6 6 34 -9 62 -34 45 -40 44 -38
-7 25 -64 78 -118 193 -102 218 5 9 -12 26 -40 39 -27 12 -49 31 -49 43 0 11
-9 20 -20 20 -11 0 -20 -8 -20 -17z"/>
<path d="M1586 2761 c-23 -21 -72 -47 -109 -58 -53 -15 -57 -20 -21 -21 50 -2
117 28 161 72 44 44 15 50 -31 7z"/>
<path d="M1685 2726 c-25 -5 -40 -17 -34 -27 18 -30 84 -22 96 11 7 17 5 29
-3 27 -8 -1 -34 -6 -59 -11z"/>
<path d="M3698 2734 c-28 -67 152 -311 197 -266 8 8 -3 28 -24 44 -22 16 -28
28 -13 28 14 0 51 -18 82 -40 103 -73 291 -87 249 -18 -6 10 14 19 45 21 31 2
11 9 -44 15 -118 15 -134 9 -81 -30 37 -27 36 -28 -14 -28 -69 0 -115 19 -115
48 0 12 -29 39 -65 58 -37 20 -100 66 -140 104 -41 37 -76 66 -77 64z"/>
<path d="M3898 2735 c-25 -83 -14 -87 132 -46 67 18 83 28 50 29 -27 2 -72 8
-100 14 -39 9 -44 7 -20 -10 25 -18 22 -21 -16 -22 -26 0 -41 9 -34 20 7 11 7
20 1 20 -6 0 -12 -2 -13 -5z"/>
<path d="M1894 2623 c-132 -97 -156 -138 -59 -101 28 10 55 14 61 9 6 -6 2
-11 -9 -11 -11 0 -37 -14 -58 -30 -37 -29 -36 -29 11 -13 28 9 61 40 75 67 14
28 41 63 60 78 27 21 26 16 -5 -22 l-40 -50 45 38 c25 21 41 43 35 48 -5 6 1
23 13 38 52 63 -6 40 -129 -51z"/>
<path d="M1321 2651 c11 -11 61 -22 110 -23 114 -2 97 16 -32 32 -71 9 -94 7
-78 -9z"/>
<path d="M4395 2668 c-11 -11 -81 -20 -211 -25 -37 -2 -61 -11 -55 -21 6 -10
43 -11 86 -1 41 10 94 12 116 7 25 -6 53 3 68 21 24 29 21 45 -4 19z"/>
<path d="M4472 2612 c-15 -37 -38 -73 -50 -81 -12 -7 -32 -33 -44 -57 -17 -32
-6 -27 40 20 35 35 72 91 82 125 23 81 8 78 -28 -7z"/>
<path d="M1230 2610 c14 -64 82 -150 118 -150 14 1 13 6 -1 16 -13 8 -48 55
-77 104 -46 78 -52 82 -40 30z"/>
<path d="M2308 2613 c-11 -13 -17 -35 -13 -48 5 -15 -3 -21 -21 -14 -17 7 -34
-4 -41 -25 -7 -20 -18 -49 -25 -66 -6 -16 6 -5 27 25 21 30 43 50 50 43 14
-14 60 67 51 91 -3 9 -16 7 -28 -6z"/>
<path d="M2453 2587 c-16 -32 -32 -75 -36 -97 -4 -22 -24 -49 -45 -60 -22 -11
-43 -31 -47 -45 -5 -15 22 -8 66 19 42 24 66 47 55 51 -13 4 -7 38 18 88 44
92 35 131 -11 44z"/>
<path d="M3387 2626 c13 -48 62 -125 85 -134 20 -8 23 -2 9 24 -10 19 -23 50
-29 70 -7 20 -20 31 -30 25 -10 -6 -23 -2 -29 9 -5 12 -8 14 -6 6z"/>
<path d="M3500 2564 c0 -33 141 -164 176 -164 18 0 15 14 -10 48 -20 26 -44
43 -54 37 -10 -6 -40 15 -65 47 -26 32 -47 46 -47 32z"/>
<path d="M2553 2499 c-19 -32 -43 -59 -52 -59 -9 0 -22 -13 -28 -30 -9 -24 -5
-25 25 -6 39 24 112 133 98 147 -5 4 -24 -19 -43 -52z"/>
<path d="M3147 2510 c16 -33 54 -82 84 -110 71 -65 38 -2 -52 100 -61 69 -61
69 -32 10z"/>
<path d="M2156 2504 c-18 -19 -56 -50 -84 -70 -29 -20 -52 -45 -52 -56 0 -11
25 3 55 31 30 28 65 51 78 51 22 0 55 58 41 72 -3 4 -21 -9 -38 -28z"/>
<path d="M2278 2451 c-69 -66 -83 -87 -54 -85 22 1 65 41 97 88 32 47 56 86
53 86 -2 -1 -46 -41 -96 -89z"/>
<path d="M1500 2500 c28 -9 37 -18 20 -20 -16 -2 -3 -12 30 -22 111 -34 148
-35 172 -6 21 25 12 28 -64 16 -83 -12 -86 -11 -48 19 38 30 35 32 -60 30 -80
-1 -90 -4 -50 -17z"/>
<path d="M3082 2365 c-4 -144 100 -314 198 -321 75 -5 83 -2 61 25 -14 17 -33
26 -43 20 -10 -6 -12 2 -6 18 11 29 -56 82 -77 61 -19 -18 -94 105 -113 185
l-18 77 -2 -65z"/>
<path d="M2610 2295 c-14 -55 -114 -155 -154 -155 -24 0 -100 -82 -88 -95 12
-12 112 57 112 77 0 10 14 18 30 18 35 0 39 -23 8 -54 -12 -12 -19 -33 -15
-46 6 -18 98 135 108 180 1 6 9 25 18 44 8 19 11 46 5 60 -5 14 -16 1 -24 -29z"/>
<path d="M1895 2285 c-140 -9 -154 -45 -17 -45 62 0 106 11 122 30 14 17 22
28 17 26 -4 -2 -59 -7 -122 -11z"/>
<path d="M2808 2254 c-27 -85 -23 -202 6 -162 33 45 33 68 1 69 -14 0 -2 14
25 31 28 17 36 26 18 21 -18 -5 -31 3 -31 19 0 37 23 35 63 -5 31 -31 33 -30
27 13 -9 61 -91 71 -109 14z"/>
<path d="M3740 2260 c0 -11 41 -20 90 -20 50 0 90 9 90 20 0 11 -40 20 -90 20
-49 0 -90 -9 -90 -20z"/>
<path d="M2022 2242 c-21 -13 -4 -23 60 -37 116 -24 168 -6 77 27 -85 31 -102
32 -137 10z"/>
<path d="M3640 2241 c0 -11 -12 -15 -26 -10 -15 6 -49 2 -75 -9 -72 -29 50
-38 138 -11 35 11 40 19 20 31 -36 23 -57 22 -57 -1z"/>
<path d="M1420 2085 c0 -22 36 -54 95 -85 52 -28 98 -57 102 -65 3 -8 21 -15
40 -15 27 1 28 4 5 18 -22 14 -20 20 10 26 27 6 -5 30 -107 82 -125 64 -145
70 -145 39z"/>
<path d="M4180 2057 c-230 -130 -219 -121 -140 -107 52 9 62 7 40 -8 -48 -34
5 -22 68 15 48 28 173 164 150 163 -5 -1 -57 -29 -118 -63z"/>
<path d="M2840 2045 c-1 -19 -4 -125 -8 -235 -4 -110 -1 -177 8 -150 10 36 18
42 26 20 6 -16 16 -43 22 -60 6 -16 7 56 2 160 -4 105 -9 215 -9 245 -1 59
-41 78 -41 20z"/>
<path d="M2739 1985 c-15 -30 -28 -72 -30 -94 -2 -21 -30 -61 -61 -89 -37 -31
-44 -44 -21 -35 39 14 39 5 3 -97 -8 -22 14 7 48 64 55 92 115 280 96 299 -4
4 -20 -18 -35 -48z"/>
<path d="M2126 1994 c-7 -12 -89 -15 -204 -9 -206 11 -171 -14 52 -37 99 -11
130 -7 155 19 18 17 45 26 60 20 16 -5 45 -1 65 10 29 17 22 21 -40 19 -42 -1
-81 -11 -88 -22z"/>
<path d="M2295 1976 c-63 -23 -109 -49 -103 -58 5 -10 -1 -18 -14 -18 -14 0
-20 -5 -14 -11 6 -6 66 15 133 48 66 32 127 53 135 46 8 -7 8 -2 0 12 -8 14
-16 24 -18 23 -2 -1 -56 -20 -119 -42z"/>
<path d="M2965 1933 c10 -94 95 -229 95 -151 0 16 -10 40 -22 52 -13 13 -26
52 -31 89 -4 36 -17 75 -30 86 -16 15 -19 -5 -12 -76z"/>
<path d="M2469 1974 c-7 -18 -52 -47 -101 -66 -49 -19 -85 -38 -80 -43 5 -4
49 9 98 31 88 39 128 76 106 98 -6 7 -17 -3 -23 -20z"/>
<path d="M3567 1970 c3 -11 60 -22 125 -24 65 -2 136 -8 158 -12 22 -5 27 -4
11 1 -20 7 -11 17 26 32 47 20 27 23 -136 23 -118 0 -188 -8 -184 -20z"/>
<path d="M3027 1945 c3 -25 31 -72 63 -105 32 -33 46 -60 33 -60 -14 0 -20 -9
-13 -20 7 -12 20 -16 28 -11 9 5 36 -9 61 -33 l46 -42 -15 46 c-16 49 -24 49
125 3 36 -11 61 -13 56 -4 -6 9 -35 21 -66 28 -30 6 -86 32 -123 57 -38 25
-87 57 -109 70 -22 13 -52 44 -66 70 l-26 46 6 -45z"/>
<path d="M3409 1961 c13 -21 128 -81 156 -81 21 0 -36 61 -59 63 -9 1 -37 10
-62 19 -28 11 -42 11 -35 -1z"/>
<path d="M2533 1820 c-75 -41 -174 -82 -220 -91 -48 -8 -68 -18 -47 -23 19 -5
77 5 128 22 117 40 128 40 112 -3 -7 -19 30 9 82 62 120 123 113 127 -55 33z"/>
<path d="M1987 1829 c114 -42 259 -51 357 -22 l86 26 -140 0 c-77 0 -194 5
-260 12 l-120 12 77 -28z"/>
<path d="M3560 1836 c-60 -8 -141 -10 -180 -5 l-70 9 87 -40 c60 -28 97 -34
121 -21 19 10 62 18 94 17 33 -1 77 8 99 19 21 12 45 20 52 18 8 -2 21 4 30
13 17 17 -58 14 -233 -10z"/>
<path d="M2000 1696 c0 -23 104 -19 140 5 22 14 7 19 -55 15 -47 -2 -85 -11
-85 -20z"/>
<path d="M3580 1700 c0 -11 38 -20 85 -20 62 1 77 6 55 20 -39 26 -140 26
-140 0z"/>
<path d="M1140 1550 c-22 -26 -20 -29 12 -17 37 13 37 13 2 -28 -36 -41 -36
-41 40 -40 117 2 143 35 63 78 -83 44 -86 44 -117 7z"/>
<path d="M1720 1512 c0 -19 142 -72 187 -71 31 1 24 9 -27 28 -118 43 -160 54
-160 43z"/>
<path d="M2807 1435 c7 -25 13 -76 15 -115 l2 -70 15 64 c18 76 5 166 -24 166
-11 0 -14 -20 -8 -45z"/>
<path d="M2452 1364 c-38 -74 -91 -118 -109 -91 -8 13 -47 -1 -102 -36 -100
-64 -68 -79 34 -17 92 56 80 21 -16 -45 -43 -30 -79 -65 -79 -79 0 -13 19 -4
41 21 23 24 49 39 58 34 22 -14 221 199 221 238 0 46 -15 38 -48 -25z"/>
<path d="M3320 1335 c86 -91 200 -168 200 -137 0 8 -25 28 -55 44 -30 15 -64
37 -75 48 -88 88 -148 126 -70 45z"/>
<path d="M3120 1369 c0 -32 58 -107 101 -130 56 -29 49 -12 -31 75 -38 42 -70
67 -70 55z"/>
<path d="M4120 1347 c-38 -16 -92 -25 -120 -20 -47 9 -47 8 -11 -19 21 -15 50
-28 65 -28 14 0 26 -10 26 -23 0 -13 6 -18 12 -11 7 7 30 -8 50 -32 20 -24 37
-38 37 -30 1 8 47 0 103 -16 128 -39 144 -25 45 38 -87 55 -119 89 -130 138
-6 30 -13 30 -77 3z"/>
<path d="M1510 1335 c13 -36 -47 -100 -145 -155 -112 -63 -97 -69 53 -21 69
22 135 38 148 36 13 -3 22 10 18 28 -3 19 6 41 19 49 14 8 18 6 10 -8 -8 -11
-5 -27 7 -34 11 -7 20 6 20 28 0 27 10 37 28 30 15 -6 33 -2 40 8 6 11 -28 29
-77 42 -113 28 -132 28 -121 -3z"/>
<path d="M2761 1220 c-14 -49 -38 -130 -53 -178 -15 -49 -24 -93 -20 -97 15
-15 48 63 81 192 38 145 30 220 -8 83z"/>
<path d="M3310 1280 c32 -60 98 -120 131 -120 19 0 40 -13 46 -30 7 -16 21
-30 32 -30 39 0 21 33 -34 62 -30 15 -60 32 -65 38 -56 55 -123 104 -110 80z"/>
<path d="M2660 1243 c0 -36 -320 -342 -372 -355 -36 -9 -88 -92 -88 -141 0 -3
31 27 69 68 39 41 70 63 70 49 1 -35 -81 -144 -108 -144 -22 0 -77 -108 -81
-160 -1 -17 -9 -42 -17 -55 -9 -14 -6 -25 6 -25 12 0 25 11 29 25 39 139 60
192 73 184 9 -5 36 24 61 64 25 41 94 128 153 194 125 140 232 293 216 309 -6
6 -11 0 -11 -13z"/>
<path d="M2941 1222 c-3 -108 65 -266 123 -287 31 -10 56 -25 56 -33 0 -28
145 -284 155 -274 6 6 -26 87 -72 180 -45 93 -78 181 -72 196 5 15 -17 54 -50
86 -34 31 -61 47 -61 34 0 -13 10 -24 22 -24 13 0 18 -18 12 -40 -6 -22 -2
-40 8 -40 10 0 18 -13 18 -30 0 -83 -59 -21 -80 85 -31 151 -57 216 -59 147z"/>
<path d="M3051 1220 c23 -45 221 -286 271 -331 25 -21 39 -28 31 -15 -7 13 -5
29 6 35 11 7 -18 46 -65 87 -46 40 -123 114 -171 164 -48 49 -80 77 -72 60z"/>
<path d="M1172 1111 c-45 -69 -40 -76 27 -41 39 20 56 41 48 60 -16 43 -38 37
-75 -19z"/>
<path d="M4465 1135 c5 -26 93 -95 121 -95 9 0 -3 27 -26 60 -43 60 -105 83
-95 35z"/>
<path d="M2554 985 c-71 -86 -164 -214 -205 -286 -42 -71 -96 -156 -121 -189
-51 -68 -94 -170 -79 -186 6 -5 22 16 36 48 43 97 278 488 294 488 8 0 39 34
68 75 82 115 66 23 -17 -101 -38 -57 -70 -113 -69 -124 0 -11 13 3 29 30 16
28 29 42 29 33 1 -24 -139 -398 -159 -423 -33 -44 -41 -105 -14 -116 20 -7 25
3 19 35 -5 26 0 52 11 59 12 7 17 -6 12 -33 -16 -88 55 93 92 234 38 142 101
319 179 499 61 141 42 133 -105 -43z"/>
<path d="M4091 1106 c-9 -25 -17 -26 -41 -6 -54 45 -31 -10 25 -61 30 -27 89
-88 132 -136 42 -48 81 -82 87 -76 6 6 -41 65 -104 132 -111 116 -114 121 -69
137 36 14 39 20 14 29 -19 8 -37 0 -44 -19z"/>
<path d="M2046 1051 c-54 -48 -55 -50 -11 -50 25 -1 45 9 45 22 0 12 16 35 35
49 19 15 24 27 11 27 -13 1 -49 -21 -80 -48z"/>
<path d="M3620 1050 c26 -27 60 -50 77 -50 22 0 18 13 -17 50 -26 28 -60 50
-77 50 -22 0 -18 -13 17 -50z"/>
<path d="M1898 1034 c-37 -25 -90 -79 -117 -120 -26 -41 -53 -66 -60 -56 -15
25 -221 -462 -220 -522 0 -28 16 -4 39 62 37 102 91 202 109 202 5 0 -12 -47
-38 -105 -48 -108 -87 -270 -53 -216 14 21 22 7 31 -50 29 -182 50 -229 102
-229 51 0 56 11 49 107 -2 32 4 53 13 47 9 -6 15 54 13 133 -3 141 40 354 105
509 33 78 25 102 -21 64 -26 -22 -26 -15 2 53 17 42 56 97 85 121 69 58 47 58
-39 0z m-275 -705 c-17 -72 -19 -74 -21 -19 -2 73 24 174 33 129 3 -16 -2 -66
-12 -110z"/>
<path d="M3775 1040 c37 -22 75 -63 85 -91 26 -68 25 -95 -3 -77 -17 10 -19 0
-9 -34 64 -212 94 -346 102 -454 5 -69 16 -137 24 -150 9 -13 13 -72 9 -130
-6 -107 -6 -107 50 -100 51 5 57 16 81 134 14 70 35 138 45 151 13 15 13 49 0
97 -30 108 -55 107 -44 -1 6 -52 4 -89 -3 -83 -7 7 -16 78 -21 158 l-7 145 38
-58 c21 -31 38 -63 38 -71 0 -55 44 -120 66 -98 18 18 17 28 -6 43 -17 10 -20
19 -7 19 12 0 33 -14 47 -30 46 -55 46 -14 1 59 -49 79 -71 91 -55 31 24 -91
-25 -10 -95 160 -46 112 -85 179 -99 173 -14 -5 -45 31 -71 79 -42 80 -151
168 -207 168 -13 0 5 -18 41 -40z"/>
<path d="M4231 1029 c34 -33 78 -84 98 -114 19 -30 43 -55 53 -55 10 0 61 -27
115 -60 54 -33 105 -60 115 -60 10 0 -13 19 -52 42 -38 24 -97 71 -130 105
-57 60 -164 145 -230 183 -16 9 -2 -9 31 -41z"/>
<path d="M2250 1013 c-59 -22 -89 -48 -90 -78 0 -31 41 -13 105 44 72 66 71
67 -15 34z"/>
<path d="M3438 993 c52 -57 122 -71 122 -25 0 15 -20 32 -45 37 -25 5 -63 17
-85 26 -35 14 -34 9 8 -38z"/>
<path d="M2910 996 c-7 -19 -8 -43 -1 -55 7 -11 25 -116 41 -234 36 -279 60
-295 60 -41 0 186 -3 204 -37 201 -27 -2 -34 7 -27 40 14 61 -16 137 -36 89z"/>
<path d="M1688 973 c-7 -18 -20 -28 -29 -22 -10 6 -31 -16 -48 -49 -16 -32
-38 -61 -49 -65 -82 -31 -311 -292 -291 -332 l22 -45 41 45 c60 67 84 113 40
78 -19 -16 -34 -21 -34 -14 0 26 139 179 222 245 93 73 168 163 151 180 -7 6
-18 -3 -25 -21z"/>
<path d="M2778 975 c-9 -141 -56 -269 -60 -163 -2 57 -2 57 -18 -10 -9 -38
-12 -88 -8 -110 5 -23 14 -78 21 -122 15 -103 27 -115 28 -28 1 61 36 260 70
403 9 35 6 55 -9 55 -12 0 -23 -11 -24 -25z"/>
<path d="M3140 992 c0 -8 45 -73 100 -146 55 -73 100 -147 100 -165 0 -17 16
-47 35 -64 19 -18 57 -70 84 -115 27 -45 57 -82 67 -82 10 0 2 25 -18 55 -19
30 -66 108 -103 174 -103 182 -265 391 -265 343z"/>
<path d="M4000 989 c0 -6 56 -67 125 -135 148 -147 320 -335 270 -296 -19 15
-35 18 -35 7 0 -35 56 -68 102 -62 37 6 6 45 -198 252 -226 229 -264 262 -264
234z"/>
<path d="M2833 827 c-26 -168 -32 -278 -15 -227 10 28 19 90 20 139 2 98 33
92 48 -9 5 -33 6 -16 2 38 -9 128 -40 160 -55 59z"/>
<path d="M3422 863 c15 -27 39 -67 53 -90 24 -42 24 -42 24 -3 0 46 -13 68
-67 110 -37 29 -37 28 -10 -17z"/>
<path d="M3410 770 c20 -33 48 -67 63 -76 15 -9 27 -27 27 -40 0 -39 117 -267
118 -231 3 61 -93 247 -169 327 -64 68 -70 71 -39 20z"/>
<path d="M3150 730 c8 -22 18 -69 24 -105 6 -36 19 -65 29 -65 22 0 1 94 -37
160 -18 32 -24 36 -16 10z"/>
<path d="M3089 620 c15 -150 71 -387 104 -437 35 -54 60 -45 29 10 -11 20 -39
123 -63 227 -57 250 -82 321 -70 200z"/>
<path d="M2861 640 c-1 -5 -11 -122 -20 -260 -10 -137 -25 -279 -32 -315 -13
-60 -10 -65 39 -65 39 0 52 10 52 40 0 55 35 51 46 -5 10 -51 -2 196 -18 365
-5 61 -18 128 -28 150 -9 22 -22 54 -27 70 -5 17 -11 26 -12 20z m58 -504 l0
-46 -29 50 c-40 69 -40 113 0 73 17 -17 30 -51 29 -77z"/>
<path d="M518 570 c-2 -22 -2 -46 -1 -53 1 -8 -17 -84 -39 -170 -48 -180 -59
-293 -35 -331 11 -18 16 -8 17 29 0 56 29 75 46 30 13 -37 45 2 73 90 13 41
32 80 42 86 10 6 14 -1 8 -17 -15 -37 68 -31 92 7 14 22 18 23 19 3 0 -14 23
-1 52 30 34 37 48 44 40 20 -14 -44 105 37 265 181 l107 96 -61 5 c-48 3 -71
-9 -106 -56 -39 -53 -97 -89 -68 -42 24 39 -46 36 -80 -4 -22 -26 -39 -34 -44
-19 -5 16 -23 17 -56 5 -32 -13 -56 -11 -73 6 -36 34 -120 40 -139 9 -11 -16
-17 -8 -17 25 -1 66 -38 128 -42 70z"/>
<path d="M3242 590 c-7 -90 95 -407 119 -369 9 15 3 38 -13 54 -31 31 -39 74
-10 56 10 -6 14 7 8 29 -6 22 -16 36 -23 32 -7 -5 -14 11 -16 35 -3 46 -63
196 -65 163z"/>
<path d="M2759 465 c-1 -8 -13 -114 -28 -235 -28 -234 -26 -271 10 -178 25 65
52 428 32 428 -7 0 -14 -7 -14 -15z"/>
<path d="M2529 415 c0 -25 -7 -81 -15 -125 -14 -76 -13 -78 14 -30 38 68 54
200 25 200 -13 0 -23 -20 -24 -45z"/>
<path d="M2654 373 c-17 -43 -40 -264 -27 -252 7 6 17 47 23 90 6 44 16 104
22 134 12 57 0 75 -18 28z"/>
<path d="M1066 331 c-114 -64 -185 -117 -185 -138 -1 -10 15 -6 34 10 32 24
32 24 8 -8 -15 -19 -36 -30 -45 -24 -10 7 -24 -3 -31 -21 -25 -65 15 -54 111
32 55 48 125 107 156 131 80 62 49 73 -48 18z"/>
<path d="M3046 202 c2 -104 13 -192 24 -195 26 -9 20 267 -8 333 -16 39 -19 8
-16 -138z"/>
<path d="M4577 345 c11 -20 40 -53 65 -75 24 -22 37 -27 27 -10 -9 16 28 -9
83 -55 106 -90 128 -100 128 -61 0 27 -99 136 -124 136 -9 0 -52 23 -96 50
-94 59 -108 62 -83 15z"/>
<path d="M1090 220 c-54 -55 -109 -100 -121 -100 -12 0 -22 -14 -22 -31 0 -18
52 21 126 94 70 69 127 128 127 131 0 15 -18 -1 -110 -94z"/>
<path d="M4622 210 c58 -60 108 -106 112 -103 8 8 -191 213 -207 213 -6 0 36
-49 95 -110z"/>
<path d="M1070 118 c-141 -114 -146 -120 -95 -112 49 7 111 58 169 139 50 71
45 69 -74 -27z"/>
<path d="M1234 106 c-102 -100 -111 -135 -18 -69 59 42 134 139 119 154 -4 4
-50 -34 -101 -85z"/>
<path d="M4380 183 c0 -9 26 -40 58 -68 32 -29 67 -67 77 -86 11 -19 32 -30
47 -25 18 6 -3 40 -65 102 -92 93 -117 110 -117 77z"/>
<path d="M4540 190 c0 -43 172 -190 222 -190 62 0 80 87 24 109 -31 12 -33 1
-5 -50 33 -63 -4 -45 -110 51 -91 83 -131 107 -131 80z"/>
<path d="M2276 130 c-6 -33 -17 -76 -25 -95 -24 -56 27 -42 53 15 15 34 16 64
2 95 -19 44 -20 43 -30 -15z"/>
<path d="M3414 148 c-27 -27 -15 -129 17 -141 17 -7 33 -9 36 -4 13 16 -39
158 -53 145z"/>
<path d="M725 102 c2 -21 14 -33 28 -28 16 6 21 -6 13 -37 -15 -63 24 -24 44
43 8 28 8 44 0 36 -8 -8 -32 -6 -51 5 -30 15 -36 12 -34 -19z"/>
<path d="M5080 61 c0 -33 9 -61 20 -61 11 0 20 22 20 49 0 27 -9 54 -20 61
-12 7 -20 -13 -20 -49z"/>
</g>
</svg>
